<svg xmlns="http://www.w3.org/2000/svg" viewBox="0 0 860 430" role="img" aria-labelledby="title desc">
  <title id="title">AILS-NTUA BrainTeaser headline results</title>
  <desc id="desc">Grouped bar chart comparing human, AILS-NTUA Mistral-7B QLoRA, ChatGPT, and RoBERTa-large on Sentence Puzzle and Word Puzzle.</desc>
  <rect width="860" height="430" fill="#ffffff"/>
  <text x="430" y="36" text-anchor="middle" font-family="Arial, sans-serif" font-size="22" font-weight="700" fill="#172033">SemEval-2024 Task 9 Overall Accuracy</text>
  <text x="430" y="62" text-anchor="middle" font-family="Arial, sans-serif" font-size="13" fill="#526070">Tables 4 and 5, Overall column</text>
  <g stroke="#d9dee7" stroke-width="1">
    <line x1="90" y1="340" x2="805" y2="340"/>
    <line x1="90" y1="280" x2="805" y2="280"/>
    <line x1="90" y1="220" x2="805" y2="220"/>
    <line x1="90" y1="160" x2="805" y2="160"/>
    <line x1="90" y1="100" x2="805" y2="100"/>
  </g>
  <g font-family="Arial, sans-serif" font-size="12" fill="#526070" text-anchor="end">
    <text x="78" y="344">0</text>
    <text x="78" y="284">25</text>
    <text x="78" y="224">50</text>
    <text x="78" y="164">75</text>
    <text x="78" y="104">100</text>
  </g>
  <line x1="90" y1="340" x2="805" y2="340" stroke="#7b8494" stroke-width="1.5"/>
  <line x1="90" y1="100" x2="90" y2="340" stroke="#7b8494" stroke-width="1.5"/>

  <g font-family="Arial, sans-serif" font-size="12" text-anchor="middle">
    <rect x="150" y="119.2" width="44" height="220.8" fill="#687387"/>
    <text x="172" y="112" fill="#172033" font-weight="700">92.0</text>
    <rect x="204" y="143.9" width="44" height="196.1" fill="#1f78d1"/>
    <text x="226" y="137" fill="#172033" font-weight="700">81.7</text>
    <rect x="258" y="189.5" width="44" height="150.5" fill="#aeb6c3"/>
    <text x="280" y="183" fill="#172033">62.7</text>
    <rect x="312" y="235.8" width="44" height="104.2" fill="#cfd5de"/>
    <text x="334" y="229" fill="#172033">43.4</text>

    <rect x="505" y="119.9" width="44" height="220.1" fill="#687387"/>
    <text x="527" y="113" fill="#172033" font-weight="700">91.7</text>
    <rect x="559" y="135.0" width="44" height="205.0" fill="#1f78d1"/>
    <text x="581" y="128" fill="#172033" font-weight="700">85.4</text>
    <rect x="613" y="211.6" width="44" height="128.4" fill="#aeb6c3"/>
    <text x="635" y="205" fill="#172033">53.5</text>
    <rect x="667" y="290.3" width="44" height="49.7" fill="#cfd5de"/>
    <text x="689" y="284" fill="#172033">20.7</text>
  </g>

  <g font-family="Arial, sans-serif" font-size="14" font-weight="700" fill="#172033" text-anchor="middle">
    <text x="253" y="376">Sentence Puzzle</text>
    <text x="608" y="376">Word Puzzle</text>
  </g>
  <g font-family="Arial, sans-serif" font-size="12" fill="#364152">
    <rect x="190" y="396" width="12" height="12" fill="#687387"/><text x="208" y="406">Human</text>
    <rect x="285" y="396" width="12" height="12" fill="#1f78d1"/><text x="303" y="406">AILS-NTUA best</text>
    <rect x="430" y="396" width="12" height="12" fill="#aeb6c3"/><text x="448" y="406">ChatGPT</text>
    <rect x="525" y="396" width="12" height="12" fill="#cfd5de"/><text x="543" y="406">RoBERTa-L</text>
  </g>
</svg>
